<?xml version="1.0" ?><svg data-name="Layer 1" id="Layer_1" viewBox="0 0 60 60" xmlns="http://www.w3.org/2000/svg" xmlns:xlink="http://www.w3.org/1999/xlink"><defs><style>.cls-1,.cls-4{fill:none;}.cls-1{clip-rule:evenodd;}.cls-2{clip-path:url(#clip-path);}.cls-3{fill:#81a4e3;}.cls-4{stroke:#314e55;stroke-linecap:round;stroke-linejoin:round;stroke-width:2px;}</style><clipPath id="clip-path"><path class="cls-1" d="M30.05,8V20H41v7H30.05V39.61s-0.5,4.72,4.75,4.24A8.76,8.76,0,0,0,41,40.5v8s-1.85,2.16-6.6,2.89a33.52,33.52,0,0,1-7.22.13C23.71,51.08,19,49.4,19,40.21V27H14V20s9.5-.31,9.5-12h6.55Z"/></clipPath></defs><title/><g class="cls-2"><rect class="cls-3" height="53.66" width="36.98" x="9" y="3"/></g><path class="cls-4" d="M30.05,8V20H41v7H30.05V39.61s-0.5,4.72,4.75,4.24A8.76,8.76,0,0,0,41,40.5v8s-1.85,2.16-6.6,2.89a33.51,33.51,0,0,1-7.22.13C23.71,51.08,19,49.4,19,40.21V27H14V20s9.5-.31,9.5-12h6.55Z"/></svg>